<svg xmlns="http://www.w3.org/2000/svg" viewBox="0 0 256 256" role="img" aria-label="HashMM 小哈专注图标提案">
  <path d="M128 9C47 9 9 47 9 128s38 119 119 119 119-38 119-119S209 9 128 9Z" fill="#f4f3ef"/>
  <path d="M129 72c0-10-3-18-8-25" fill="none" stroke="#ef4148" stroke-width="9" stroke-linecap="round"/>
  <circle cx="118" cy="41" r="8" fill="#ef4148"/>
  <path d="M128 67c-40 0-61 18-61 57s21 57 61 57 61-18 61-57-21-57-61-57Z" fill="#18191c"/>
  <rect x="88" y="114" width="31" height="23" rx="11.5" fill="#fff"/>
  <rect x="138" y="113" width="31" height="23" rx="11.5" fill="#fff"/>
  <circle cx="107" cy="124" r="5" fill="#18191c"/>
  <circle cx="157" cy="123" r="5" fill="#18191c"/>
  <path d="M88 114h31c-2-7-7-10-15-10-8 0-13 3-16 10Zm50-1h31c-3-7-8-10-16-10s-13 3-15 10Z" fill="#18191c" opacity=".16"/>
  <rect x="73" y="188" width="110" height="18" rx="9" fill="#ef4148"/>
  <path d="M146 197h15v18c0 6-3 11-8 14-5-3-7-7-7-13Z" fill="#ef4148"/>
</svg>
