<svg xmlns="http://www.w3.org/2000/svg" viewBox="0 0 256 256" role="img" aria-label="HashMM 小哈观察者图标提案">
  <path d="M128 9C47 9 9 47 9 128s38 119 119 119 119-38 119-119S209 9 128 9Z" fill="#f4f3ef"/>
  <path d="M126 72c-1-10-4-18-10-24" fill="none" stroke="#ef4148" stroke-width="9" stroke-linecap="round"/>
  <circle cx="112" cy="42" r="8" fill="#ef4148"/>
  <path d="M128 67c-40 0-61 18-61 57s21 57 61 57 61-18 61-57-21-57-61-57Z" fill="#18191c"/>
  <path d="M88 124c0-9 7-15 17-15s17 6 17 15-7 15-17 15-17-6-17-15Z" fill="#fff"/>
  <path d="M136 123c0-10 8-17 18-17s18 7 18 17-8 17-18 17-18-7-18-17Z" fill="#fff"/>
  <circle cx="110" cy="122" r="5.5" fill="#18191c"/>
  <circle cx="159" cy="121" r="5.5" fill="#18191c"/>
  <circle cx="112" cy="120" r="1.8" fill="#fff"/>
  <circle cx="161" cy="119" r="1.8" fill="#fff"/>
  <rect x="73" y="188" width="110" height="18" rx="9" fill="#ef4148"/>
  <path d="M146 197h15v18c0 6-3 11-8 14-5-3-7-7-7-13Z" fill="#ef4148"/>
</svg>
